<svg xmlns="http://www.w3.org/2000/svg" width="194.88" height="35" viewBox="0 0 194.88 35"><rect class="svg__rect" x="0" y="0" width="44.94" height="35" fill="#B3C05A"/><rect class="svg__rect" x="42.94" y="0" width="151.94" height="35" fill="#4892C0"/><path class="svg__text" d="M17.33 22L14.22 22L14.22 13.47L17.14 13.47Q18.59 13.47 19.34 14.05Q20.10 14.63 20.10 15.78L20.10 15.78Q20.10 16.36 19.78 16.83Q19.47 17.30 18.86 17.56L18.86 17.56Q19.55 17.75 19.93 18.26Q20.31 18.78 20.31 19.51L20.31 19.51Q20.31 20.71 19.53 21.36Q18.76 22 17.33 22L17.33 22ZM15.70 18.15L15.70 20.82L17.35 20.82Q18.04 20.82 18.44 20.47Q18.83 20.13 18.83 19.51L18.83 19.51Q18.83 18.18 17.47 18.15L17.47 18.15L15.70 18.15ZM15.70 14.66L15.70 17.06L17.15 17.06Q17.84 17.06 18.23 16.75Q18.62 16.43 18.62 15.86L18.62 15.86Q18.62 15.23 18.26 14.95Q17.90 14.66 17.14 14.66L17.14 14.66L15.70 14.66ZM26.81 18.86L23.95 13.47L25.60 13.47L27.56 17.51L29.52 13.47L31.16 13.47L28.30 18.86L28.30 22L26.81 22L26.81 18.86Z" fill="#FFFFFF"/><path class="svg__text" d="M61.10 22L57.13 22L57.13 13.60L61.10 13.60Q62.48 13.60 63.55 14.12Q64.62 14.63 65.21 15.58Q65.79 16.53 65.79 17.80L65.79 17.80Q65.79 19.07 65.21 20.02Q64.62 20.97 63.55 21.48Q62.48 22 61.10 22L61.10 22ZM59.51 15.50L59.51 20.10L61.01 20.10Q62.08 20.10 62.74 19.49Q63.39 18.88 63.39 17.80L63.39 17.80Q63.39 16.72 62.74 16.11Q62.08 15.50 61.01 15.50L61.01 15.50L59.51 15.50ZM72.90 22L70.52 22L70.52 13.60L72.90 13.60L72.90 22ZM80.66 22L77.07 13.60L79.64 13.60L81.92 19.07L84.25 13.60L86.59 13.60L83.00 22L80.66 22ZM93.13 22L90.75 22L90.75 13.60L93.13 13.60L93.13 22ZM97.22 20.93L97.22 20.93L98.52 19.40Q99.19 20.27 99.96 20.27L99.96 20.27Q99.97 20.27 99.97 20.27L99.97 20.27Q100.49 20.27 100.76 19.96Q101.03 19.65 101.03 19.05L101.03 19.05L101.03 15.44L98.13 15.44L98.13 13.60L103.38 13.60L103.38 18.91Q103.38 20.54 102.56 21.36Q101.74 22.17 100.14 22.17L100.14 22.17Q99.22 22.17 98.46 21.85Q97.70 21.53 97.22 20.93ZM117.80 22L115.44 22L115.44 13.60L117.80 13.60L117.80 17.09L121.05 13.60L123.66 13.60L120.23 17.32L123.84 22L121.08 22L118.68 18.95L117.80 19.90L117.80 22ZM129.37 22L126.94 22L130.65 13.60L133.00 13.60L136.71 22L134.24 22L133.58 20.37L130.03 20.37L129.37 22ZM131.81 15.93L130.72 18.61L132.88 18.61L131.81 15.93ZM142.66 15.48L140.07 15.48L140.07 13.60L147.60 13.60L147.60 15.48L145.03 15.48L145.03 22L142.66 22L142.66 15.48ZM154.09 18.95L150.89 13.60L153.40 13.60L155.39 16.94L157.38 13.60L159.68 13.60L156.47 18.99L156.47 22L154.09 22L154.09 18.95ZM165.19 22L162.76 22L166.47 13.60L168.81 13.60L172.53 22L170.06 22L169.40 20.37L165.85 20.37L165.19 22ZM167.62 15.93L166.54 18.61L168.70 18.61L167.62 15.93ZM183.07 22L176.68 22L176.68 13.60L179.06 13.60L179.06 20.11L183.07 20.11L183.07 22Z" fill="#FFFFFF" x="55.94"/></svg>