<svg xmlns="http://www.w3.org/2000/svg" width="111.72" height="35" viewBox="0 0 111.72 35"><rect class="svg__rect" x="0" y="0" width="55.28" height="35" fill="#31C4F3"/><rect class="svg__rect" x="53.28" y="0" width="58.44" height="35" fill="#389AD5"/><path class="svg__text" d="M15.70 22L14.22 22L14.22 13.47L19.64 13.47L19.64 14.66L15.70 14.66L15.70 17.20L19.13 17.20L19.13 18.38L15.70 18.38L15.70 22ZM23.53 18.00L23.53 18.00L23.53 17.52Q23.53 16.28 23.97 15.32Q24.41 14.37 25.22 13.86Q26.02 13.35 27.07 13.35Q28.11 13.35 28.92 13.85Q29.72 14.35 30.16 15.29Q30.60 16.23 30.61 17.48L30.61 17.48L30.61 17.96Q30.61 19.21 30.17 20.16Q29.74 21.10 28.93 21.61Q28.13 22.12 27.08 22.12L27.08 22.12Q26.04 22.12 25.23 21.61Q24.42 21.10 23.98 20.17Q23.53 19.23 23.53 18.00ZM25.01 17.46L25.01 17.96Q25.01 19.36 25.56 20.13Q26.11 20.90 27.08 20.90L27.08 20.90Q28.06 20.90 28.59 20.15Q29.12 19.40 29.12 17.96L29.12 17.96L29.12 17.51Q29.12 16.09 28.59 15.34Q28.05 14.58 27.07 14.58L27.07 14.58Q26.11 14.58 25.56 15.33Q25.02 16.09 25.01 17.46L25.01 17.46ZM36.55 22L35.07 22L35.07 13.47L38.07 13.47Q39.55 13.47 40.35 14.13Q41.15 14.79 41.15 16.05L41.15 16.05Q41.15 16.90 40.74 17.48Q40.33 18.06 39.59 18.37L39.59 18.37L41.50 21.92L41.50 22L39.92 22L38.21 18.71L36.55 18.71L36.55 22ZM36.55 14.66L36.55 17.52L38.08 17.52Q38.83 17.52 39.25 17.15Q39.67 16.77 39.67 16.11L39.67 16.11Q39.67 15.43 39.28 15.05Q38.89 14.68 38.12 14.66L38.12 14.66L36.55 14.66Z" fill="#FFFFFF"/><path class="svg__text" d="M69.85 22L67.47 22L67.47 13.60L69.85 13.60L69.85 16.76L73.09 16.76L73.09 13.60L75.46 13.60L75.46 22L73.09 22L73.09 18.72L69.85 18.72L69.85 22ZM87.37 22L80.62 22L80.62 13.60L87.21 13.60L87.21 15.44L82.98 15.44L82.98 16.85L86.71 16.85L86.71 18.63L82.98 18.63L82.98 20.17L87.37 20.17L87.37 22ZM94.55 22L92.17 22L92.17 13.60L96.01 13.60Q97.16 13.60 98.00 13.98Q98.83 14.35 99.29 15.06Q99.75 15.76 99.75 16.71L99.75 16.71Q99.75 17.62 99.32 18.30Q98.89 18.98 98.10 19.36L98.10 19.36L99.91 22L97.37 22L95.84 19.77L94.55 19.77L94.55 22ZM94.55 15.47L94.55 17.93L95.87 17.93Q96.60 17.93 96.97 17.61Q97.34 17.29 97.34 16.71L97.34 16.71Q97.34 16.12 96.97 15.79Q96.60 15.47 95.87 15.47L95.87 15.47L94.55 15.47Z" fill="#FFFFFF" x="66.28"/></svg>