<?xml version="1.0" encoding="UTF-8"?>
<svg width="70px" height="70px" viewBox="0 0 70 70" version="1.1" xmlns="http://www.w3.org/2000/svg" xmlns:xlink="http://www.w3.org/1999/xlink">
    <!-- Generator: Sketch 57 (83077) - https://sketch.com -->
    <title>A Brand / Logos / alan-logo-icon-white</title>
    <desc>Created with Sketch.</desc>
    <g id="A-Brand-/-Logos-/-alan-logo-icon-white" stroke="none" stroke-width="1" fill="none" fill-rule="evenodd">
        <g id="logo" transform="translate(11.000000, 19.000000)" fill="#FFFFFF">
            <path d="M16.874995,20.5991903 L22.6543294,20.5991903 C23.4401466,20.5991903 24.1597265,21.0352693 24.5175007,21.7283072 L29.0415098,30.4916839 C29.1169222,30.6377639 29.1562457,30.7994913 29.1562457,30.9635628 C29.1562457,31.5359712 28.6877916,32 28.1099242,32 L9.68005371,32 C10.4641982,32 11.1825401,31.565757 11.5411032,30.8749819 L16.874995,20.5991903 Z" id="shape" fill-opacity="0.6"></path>
            <path d="M17.7080699,21.6047363 L6.37115736,21.6047363 C5.48711302,21.6047363 4.67758565,22.0953252 4.27508971,22.8749928 L15.488504,1.26564537 C15.8918875,0.488523348 16.7000221,0 17.5821846,0 L31.5787095,0 L30.5592586,0 C29.5790781,0 28.6811507,0.542803719 28.2329468,1.40627263 L17.7080699,21.6047363 Z" id="shape" fill-opacity="0.6"></path>
            <path d="M19.5637464,1.40627263 C19.1155425,0.542803719 18.2176151,0 17.2374346,0 L16.2179837,0 L30.2145085,0 C31.0966711,0 31.9048057,0.488523348 32.3081892,1.26564537 L47.869585,31.2448173 C47.9076346,31.3181203 47.9274834,31.3993564 47.9274834,31.4817814 C47.9274834,31.7679856 47.6932563,32 47.4043226,32 L36.721224,32 C35.9370796,32 35.2187376,31.565757 34.8601745,30.8749819 L19.5637464,1.40627263 Z" id="shape"></path>
            <path d="M18.2704105,20.5991903 L12.9365187,30.8749819 C12.5779556,31.565757 11.8596136,32 11.0754692,32 L0.890308908,32 C0.766081788,32 0.643629464,31.970786 0.533024649,31.914761 C0.14714925,31.7193024 -0.00570295669,31.2509931 0.191619691,30.868763 L4.83743029,21.8694468 C5.23992623,21.0897791 6.0494536,20.5991903 6.93349794,20.5991903 L18.2704105,20.5991903 L18.2704105,20.5991903 Z" id="shape"></path>
        </g>
    </g>
</svg>